<?xml version="1.0" encoding="UTF-8"?>
<svg id="Calque_1" xmlns="http://www.w3.org/2000/svg" baseProfile="tiny" version="1.2" viewBox="0 0 50.85 40.11">
  <!-- Generator: Adobe Illustrator 29.5.1, SVG Export Plug-In . SVG Version: 2.1.0 Build 141)  -->
  <path d="M34.35,11.42l-19.19-.35c-1.26-.02-2.47.49-3.33,1.4-.86.92-1.3,2.16-1.2,3.41.14,1.97.32,4.18.46,6.01.19,2.25,2,4.02,4.25,4.15l15.4.77c.76,1.15,1.93,1.98,3.27,2.32.11.02.23-.02.29-.11.07-.09.08-.21.02-.31-.3-.55-.52-1.14-.63-1.76h.21c1.21.06,2.39-.37,3.27-1.19.89-.82,1.4-1.96,1.44-3.17l.18-6.57c.03-1.2-.42-2.36-1.25-3.23-.83-.87-1.97-1.36-3.17-1.38h0" vector-effect="none" fill="#673ab7"/>
  <path d="M36.11,10.82l-19.19.81c-1.26.05-2.43.63-3.24,1.59-.81.96-1.18,2.22-1.01,3.47.25,1.97.56,4.15.81,5.98.31,2.24,2.24,3.9,4.5,3.87l15.43-.18c.82,1.1,2.02,1.85,3.37,2.11.11.02.22-.02.28-.12.06-.09.06-.21,0-.31-.33-.53-.58-1.11-.74-1.72h.21c1.21-.01,2.36-.51,3.19-1.39.83-.87,1.28-2.05,1.24-3.25l-.21-6.57c-.03-1.19-.54-2.32-1.42-3.12-.87-.81-2.04-1.23-3.22-1.17h0" vector-effect="none" fill="#673ab7"/>
  <path d="M35.06,11.07l-19.19.32c-1.25.03-2.44.58-3.27,1.52-.83.94-1.22,2.19-1.09,3.43.21,1.97.46,4.18.67,6.01.25,2.24,2.14,3.94,4.39,3.97l15.43.25c.79,1.13,1.99,1.92,3.34,2.21.11.02.22-.03.29-.11.07-.09.08-.21.03-.31-.32-.55-.56-1.14-.7-1.76h.21c1.21.02,2.37-.45,3.23-1.29.86-.85,1.34-2,1.34-3.21l-.04-6.61c-.09-2.49-2.15-4.45-4.64-4.43h0" vector-effect="none" fill="#e94969"/>
  <path d="M29.4,13.39c-.98-1.9-2.18-2.71-3.13-2.46-.95.25-1.41,1.05-2.88,2.64-1.2,1.3-3.13,2.25-4.67,2.67-.56.14-.84.11-.95.49-.25.98-.21,3.37,1.3,4.74.17.16.41.21.63.14.2-.05.4-.11.6-.18.11-.04.22,0,.28.11.26.47.44.98.53,1.51.11.52.11,1.06,0,1.58-.04.18.04.42.42.53.39.11,1.72.35,2.11.42.39.07.56-.21.35-.53-.34-.53-.63-1.08-.88-1.65l.25-.32c.07-.09.1-.21.07-.32l-.28-.84c-.04-.15-.16-.26-.32-.28-.11,0-.21-.04-.32-.04-.07-.32-.11-.49-.11-.49,1-.24,2.05-.14,2.99.28,1.65.7,2.88,1.23,3.9.98,1.02-.25,1.44-1.93,1.51-3.2.07-1.23-.42-3.9-1.4-5.8" vector-effect="none" fill="none" stroke="#673ab7" stroke-miterlimit="3.11" stroke-width="1.59"/>
  <path d="M26.73,11.77c-.67.18-.88,1.58-.67,3.45.75.13,1.35.7,1.51,1.44.23.74,0,1.54-.6,2.04.7,1.79,1.65,2.99,2.32,2.81.88-.25.98-2.6.28-5.27-.7-2.71-1.97-4.68-2.85-4.47" vector-effect="none" fill="none" stroke="#673ab7" stroke-miterlimit="3.11" stroke-width="1.59"/>
  <path d="M31.12,12.79c-.13.04-.27,0-.35-.11-.14-.15-.14-.38,0-.53l2.18-2.21c.15-.15.38-.15.53,0s.15.38,0,.53l-2.18,2.18c-.07.07-.14.1-.18.14" vector-effect="none" fill="none" stroke="#673ab7" stroke-miterlimit="3.11" stroke-width="1.59"/>
  <path d="M35.76,19.89h-.21l-2.99-.81c-.14-.03-.24-.13-.29-.26-.04-.13,0-.28.09-.38.1-.1.24-.14.37-.1l2.99.81c.2.05.32.25.28.46-.03.13-.12.23-.25.28" vector-effect="none" fill="none" stroke="#673ab7" stroke-miterlimit="3.11" stroke-width="1.59"/>
  <path d="M35.76,14.86l-3.41.91c-.2.05-.41-.08-.46-.28s.08-.41.28-.46l3.41-.91c.1-.03.21-.02.29.03.09.05.15.14.16.25.04.2-.08.4-.28.46h0" vector-effect="none" fill="none" stroke="#673ab7" stroke-miterlimit="3.11" stroke-width="1.59"/>
  <path d="M29.4,13.39c-.98-1.9-2.18-2.71-3.13-2.46-.95.25-1.41,1.05-2.88,2.64-1.2,1.3-3.13,2.25-4.67,2.67-.56.14-.84.11-.95.49-.25.98-.21,3.37,1.3,4.74.17.16.41.21.63.14.2-.05.4-.11.6-.18.11-.04.22,0,.28.11.26.47.44.98.53,1.51.11.52.11,1.06,0,1.58-.04.18.04.42.42.53.39.11,1.72.35,2.11.42.39.07.56-.21.35-.53-.34-.53-.63-1.08-.88-1.65l.25-.32c.07-.09.1-.21.07-.32l-.28-.84c-.04-.15-.16-.26-.32-.28-.11,0-.21-.04-.32-.04-.07-.32-.11-.49-.11-.49,1-.24,2.05-.14,2.99.28,1.65.7,2.88,1.23,3.9.98,1.02-.25,1.44-1.93,1.51-3.2.07-1.23-.42-3.9-1.4-5.8" vector-effect="none" fill="#fff"/>
  <path d="M26.73,11.77c-.67.18-.88,1.58-.67,3.45.75.13,1.35.7,1.51,1.44.23.74,0,1.54-.6,2.04.7,1.79,1.65,2.99,2.32,2.81.88-.25.98-2.6.28-5.27-.7-2.71-1.97-4.68-2.85-4.47" vector-effect="none" fill="#673ab7"/>
  <path d="M31.12,12.79c-.13.04-.27,0-.35-.11-.14-.15-.14-.38,0-.53l2.18-2.21c.15-.15.38-.15.53,0s.15.38,0,.53l-2.18,2.18c-.07.07-.14.1-.18.14" vector-effect="none" fill="#fff"/>
  <path d="M35.76,19.89h-.21l-2.99-.81c-.14-.03-.24-.13-.29-.26-.04-.13,0-.28.09-.38.1-.1.24-.14.37-.1l2.99.81c.2.05.32.25.28.46-.03.13-.12.23-.25.28" vector-effect="none" fill="#fff"/>
  <path d="M35.76,14.86l-3.41.91c-.2.05-.41-.08-.46-.28s.08-.41.28-.46l3.41-.91c.1-.03.21-.02.29.03.09.05.15.14.16.25.04.2-.08.4-.28.46h0" vector-effect="none" fill="#fff"/>
</svg>