<?xml version="1.0" encoding="UTF-8"?>
<svg id="Calque_1" xmlns="http://www.w3.org/2000/svg" version="1.1" viewBox="0 0 350 100">
  <!-- Generator: Adobe Illustrator 29.5.1, SVG Export Plug-In . SVG Version: 2.1.0 Build 141)  -->
  <path d="M54.54,28.53l-41.71-.76c-2.74-.05-5.37,1.06-7.24,3.05-1.88,1.99-2.82,4.68-2.61,7.41.31,4.28.69,9.09.99,13.06.41,4.88,4.35,8.73,9.24,9.01l33.46,1.68c1.66,2.5,4.19,4.3,7.1,5.04.24.05.49-.04.64-.24.15-.2.17-.46.05-.68-.66-1.19-1.12-2.48-1.38-3.82h.46c2.62.13,5.19-.79,7.11-2.58,1.93-1.78,3.05-4.27,3.12-6.89l.38-14.28c.07-2.61-.91-5.13-2.72-7.01-1.81-1.88-4.29-2.96-6.9-3h0" vector-effect="none" fill="#673ab7"/>
  <path d="M58.36,27.24l-41.71,1.76c-2.73.11-5.29,1.37-7.05,3.46-1.76,2.09-2.56,4.83-2.19,7.54.53,4.28,1.22,9.01,1.76,12.99.67,4.87,4.87,8.47,9.78,8.4l33.53-.38c1.78,2.4,4.4,4.03,7.33,4.58.24.05.48-.05.62-.25.13-.2.13-.47,0-.67-.72-1.16-1.26-2.42-1.6-3.74h.46c2.62-.03,5.13-1.12,6.94-3.01,1.81-1.9,2.78-4.45,2.69-7.07l-.46-14.28c-.07-2.58-1.18-5.03-3.08-6.79-1.9-1.75-4.43-2.67-7.01-2.53h0" vector-effect="none" fill="#673ab7"/>
  <path d="M56.07,27.77l-41.71.69c-2.72.06-5.3,1.26-7.1,3.31-1.8,2.05-2.66,4.75-2.37,7.46.46,4.28.99,9.09,1.45,13.06.55,4.87,4.64,8.57,9.55,8.63l33.53.53c1.72,2.46,4.32,4.18,7.26,4.81.24.04.48-.05.62-.25.15-.19.17-.45.06-.67-.7-1.19-1.22-2.48-1.53-3.82h.46c2.62.04,5.14-.97,7.01-2.81,1.87-1.84,2.92-4.35,2.92-6.97l-.08-14.36c-.2-5.41-4.67-9.68-10.08-9.62h0" vector-effect="none" fill="#e94969"/>
  <path d="M43.77,32.81c-2.14-4.13-4.73-5.88-6.8-5.35-2.07.54-3.06,2.29-6.26,5.73-2.6,2.83-6.8,4.89-10.16,5.81-1.22.31-1.83.23-2.07,1.07-.53,2.14-.46,7.33,2.83,10.31.37.34.9.46,1.38.31.44-.1.87-.23,1.3-.38.23-.08.49.02.61.23.58,1.02.96,2.13,1.15,3.28.24,1.13.24,2.3,0,3.44-.08.38.08.92.92,1.15.84.23,3.74.76,4.58.92.84.15,1.22-.46.76-1.15-.73-1.15-1.37-2.35-1.91-3.59l.53-.69c.16-.19.21-.45.15-.69l-.61-1.83c-.08-.33-.36-.57-.69-.61-.23,0-.46-.08-.69-.08-.15-.69-.23-1.07-.23-1.07,2.17-.52,4.46-.3,6.49.61,3.59,1.53,6.26,2.67,8.48,2.14,2.22-.53,3.13-4.2,3.29-6.95.16-2.67-.91-8.48-3.05-12.6" vector-effect="none" fill="none" stroke="#673ab7" stroke-miterlimit="3.11" stroke-width="1.59"/>
  <path d="M37.97,29.3c-1.45.38-1.91,3.44-1.45,7.49,1.63.28,2.93,1.52,3.29,3.13.51,1.6,0,3.36-1.3,4.43,1.53,3.9,3.59,6.49,5.04,6.11,1.91-.53,2.14-5.65.61-11.46-1.53-5.89-4.28-10.17-6.19-9.71" vector-effect="none" fill="none" stroke="#673ab7" stroke-miterlimit="3.11" stroke-width="1.59"/>
  <path d="M47.52,31.51c-.28.09-.58,0-.76-.23-.31-.32-.31-.82,0-1.15l4.73-4.81c.32-.32.83-.32,1.15,0s.32.83,0,1.15l-4.73,4.73c-.15.15-.31.23-.38.3" vector-effect="none" fill="none" stroke="#673ab7" stroke-miterlimit="3.11" stroke-width="1.59"/>
  <path d="M57.6,46.94h-.46l-6.49-1.76c-.29-.06-.53-.28-.62-.56-.09-.29-.01-.6.19-.82.21-.22.52-.3.81-.22l6.49,1.76c.43.12.7.55.61.99-.07.28-.27.51-.53.61" vector-effect="none" fill="none" stroke="#673ab7" stroke-miterlimit="3.11" stroke-width="1.59"/>
  <path d="M57.6,36.02l-7.41,1.99c-.44.11-.89-.17-.99-.61s.17-.89.61-1l7.41-1.99c.21-.07.45-.04.64.08.19.12.32.31.35.54.08.44-.18.87-.61.99h0" vector-effect="none" fill="none" stroke="#673ab7" stroke-miterlimit="3.11" stroke-width="1.59"/>
  <path d="M43.77,32.81c-2.14-4.13-4.73-5.88-6.8-5.35-2.07.54-3.06,2.29-6.26,5.73-2.6,2.83-6.8,4.89-10.16,5.81-1.22.31-1.83.23-2.07,1.07-.53,2.14-.46,7.33,2.83,10.31.37.34.9.46,1.38.31.44-.1.87-.23,1.3-.38.23-.08.49.02.61.23.58,1.02.96,2.13,1.15,3.28.24,1.13.24,2.3,0,3.44-.08.38.08.92.92,1.15.84.23,3.74.76,4.58.92.84.15,1.22-.46.76-1.15-.73-1.15-1.37-2.35-1.91-3.59l.53-.69c.16-.19.21-.45.15-.69l-.61-1.83c-.08-.33-.36-.57-.69-.61-.23,0-.46-.08-.69-.08-.15-.69-.23-1.07-.23-1.07,2.17-.52,4.46-.3,6.49.61,3.59,1.53,6.26,2.67,8.48,2.14,2.22-.53,3.13-4.2,3.29-6.95.16-2.67-.91-8.48-3.05-12.6" vector-effect="none" fill="#fff"/>
  <path d="M37.97,29.3c-1.45.38-1.91,3.44-1.45,7.49,1.63.28,2.93,1.52,3.29,3.13.51,1.6,0,3.36-1.3,4.43,1.53,3.9,3.59,6.49,5.04,6.11,1.91-.53,2.14-5.65.61-11.46-1.53-5.89-4.28-10.17-6.19-9.71" vector-effect="none" fill="#673ab7"/>
  <path d="M47.52,31.51c-.28.09-.58,0-.76-.23-.31-.32-.31-.82,0-1.15l4.73-4.81c.32-.32.83-.32,1.15,0s.32.83,0,1.15l-4.73,4.73c-.15.15-.31.23-.38.3" vector-effect="none" fill="#fff"/>
  <path d="M57.6,46.94h-.46l-6.49-1.76c-.29-.06-.53-.28-.62-.56-.09-.29-.01-.6.19-.82.21-.22.52-.3.81-.22l6.49,1.76c.43.12.7.55.61.99-.07.28-.27.51-.53.61" vector-effect="none" fill="#fff"/>
  <path d="M57.6,36.02l-7.41,1.99c-.44.11-.89-.17-.99-.61s.17-.89.61-1l7.41-1.99c.21-.07.45-.04.64.08.19.12.32.31.35.54.08.44-.18.87-.61.99h0" vector-effect="none" fill="#fff"/>
  <path d="M95.91,31.7l9.78,22.92h-5.35l-1.53-3.51h-8.4l-1.53,3.51h-6.11l10.69-22.92h2.44M94.45,40.64l-2.6,5.81h5.35l-2.75-5.81" vector-effect="none" fill="#673ab7"/>
  <path d="M115.92,38.58c2.41-.09,4.78.64,6.72,2.07l-2.52,3.67c-1.07-1.08-2.53-1.69-4.05-1.68-.48-.05-.96.06-1.38.31-.27.16-.45.45-.46.76.02.27.2.51.46.61.51.22,1.05.37,1.6.46,1.82.24,3.56.87,5.12,1.83.97.68,1.54,1.8,1.53,2.98.06,1.6-.73,3.1-2.07,3.97-1.66.99-3.57,1.47-5.5,1.38-3.36,0-5.88-.76-7.56-2.29l2.45-3.9c.69.68,1.49,1.25,2.37,1.68.89.4,1.86.58,2.83.53,1.3,0,1.99-.31,1.99-.99,0-.3-.18-.58-.46-.69-.53-.26-1.1-.44-1.68-.53-1.78-.31-3.48-.93-5.04-1.83-1-.69-1.57-1.84-1.53-3.06-.03-1.55.71-3.01,1.99-3.9,1.54-1,3.36-1.48,5.19-1.37" vector-effect="none" fill="#673ab7"/>
  <path d="M131.96,30.48v13.52l5.27-5.12h7.18l-6.26,5.96,6.49,9.78h-6.65l-4.05-6.03-2.07,1.99v4.13h-5.5v-24.22h5.58" vector-effect="none" fill="#673ab7"/>
  <path d="M152.97,38.88v15.74h-5.5v-15.74h5.5" vector-effect="none" fill="#673ab7"/>
  <path d="M152.97,32.77c0,1.69-1.37,3.06-3.06,3.06s-3.06-1.37-3.06-3.06,1.37-3.06,3.06-3.06,3.06,1.37,3.06,3.06" vector-effect="none" fill="none" stroke="#e94969" stroke-miterlimit="3.11" stroke-width=".62"/>
  <path d="M167.94,38.65c1.92-.11,3.78.68,5.04,2.14,1.29,1.59,1.95,3.61,1.83,5.65v8.25h-5.5v-7.94c.06-.91-.21-1.8-.76-2.52-.54-.62-1.32-.95-2.14-.92-.81-.02-1.6.31-2.14.92-.57.68-.87,1.55-.84,2.44v7.87h-5.5v-15.66h5.5v1.6c1.13-1.29,2.8-1.97,4.51-1.83h0" vector-effect="none" fill="#673ab7"/>
  <path d="M186.35,38.65c.97-.03,1.93.15,2.83.53.74.29,1.4.77,1.91,1.38v-1.61h5.5v15.74c.11,2.29-.92,4.5-2.75,5.88-2.02,1.44-4.47,2.17-6.95,2.07-3.59,0-6.42-.99-8.48-3.06l3.21-3.9c1.25,1.58,3.18,2.46,5.19,2.37,1.03,0,2.04-.29,2.9-.84.84-.55,1.31-1.52,1.22-2.52v-1.61c-.53.6-1.18,1.07-1.91,1.38-.89.37-1.86.56-2.83.53-2.17.07-4.27-.76-5.81-2.29-1.53-1.53-2.36-3.64-2.29-5.81-.06-2.17.77-4.26,2.29-5.81,1.57-1.59,3.72-2.48,5.96-2.45M187.5,43.24c-.99-.05-1.96.31-2.67.99-.69.68-1.06,1.63-.99,2.6-.06.97.3,1.92.99,2.6.74.64,1.7.97,2.67.92.99.05,1.96-.31,2.67-.99.68-.66,1.04-1.58.99-2.52v-.08c.04-.96-.36-1.88-1.07-2.52-.68-.69-1.63-1.06-2.6-.99h0" vector-effect="none" fill="#673ab7"/>
  <path d="M228.36,31.87v5.27h-11.38v4.35h9.62v4.97h-9.62v8.33h-6.11v-22.92h17.49" vector-effect="none" fill="#673ab7"/>
  <path d="M241.58,38.82v4.73c-1.37-.05-2.72.29-3.9.99-.98.52-1.58,1.56-1.53,2.67v7.56h-5.5v-15.74h5.5v1.91c.99-1.45,2.83-2.14,5.42-2.14" vector-effect="none" fill="#673ab7"/>
  <path d="M251.51,38.82c.97-.03,1.93.15,2.83.53.74.29,1.4.77,1.91,1.38v-1.61h5.5v15.74h-5.5v-1.6c-.53.6-1.18,1.07-1.91,1.38-.89.37-1.86.56-2.83.53-2.17.07-4.27-.76-5.81-2.29-1.53-1.54-2.36-3.64-2.29-5.81-.06-2.17.77-4.26,2.29-5.81,1.48-1.63,3.61-2.52,5.81-2.44h0M252.65,43.4c-.97-.04-1.93.29-2.67.92-.69.68-1.06,1.63-.99,2.6-.05.97.31,1.91.99,2.6.73.66,1.69,1.02,2.67.99.96.04,1.89-.31,2.58-.98.69-.66,1.08-1.58,1.09-2.54v-.08c.06-.95-.3-1.87-.99-2.52-.72-.68-1.69-1.04-2.68-.99h0" vector-effect="none" fill="#673ab7"/>
  <path d="M276.79,38.82c1.92-.11,3.78.68,5.04,2.14,1.29,1.59,1.95,3.61,1.83,5.65v8.25h-5.5v-7.94c.06-.91-.21-1.8-.76-2.52-.54-.62-1.32-.95-2.14-.92-.81-.02-1.6.31-2.14.92-.57.68-.87,1.55-.84,2.44v7.87h-5.5v-15.66h5.5v1.6c1.13-1.29,2.8-1.97,4.51-1.83h0" vector-effect="none" fill="#673ab7"/>
  <path d="M293.98,30.64v13.52l5.27-5.12h7.18l-6.26,5.96,6.49,9.78h-6.65l-4.05-6.03-2.07,1.99v4.13h-5.42v-24.22h5.5" vector-effect="none" fill="#673ab7"/>
  <path d="M315.06,30.64v24.14h-5.5v-24.14h5.5" vector-effect="none" fill="#673ab7"/>
  <path d="M325.45,39.05v15.74h-5.5v-15.74h5.5" vector-effect="none" fill="#673ab7"/>
  <path d="M325.76,33.32c0,1.69-1.37,3.06-3.06,3.06s-3.06-1.37-3.06-3.06,1.37-3.06,3.06-3.06,3.06,1.37,3.06,3.06" vector-effect="none" fill="none" stroke="#e94969" stroke-miterlimit="3.11" stroke-width=".62"/>
  <path d="M340.42,38.82c1.92-.11,3.78.68,5.04,2.14,1.29,1.59,1.95,3.61,1.83,5.65v8.25h-5.5v-7.94c.06-.91-.21-1.8-.76-2.52-.54-.62-1.32-.95-2.14-.92-.81-.02-1.6.31-2.14.92-.57.68-.87,1.55-.84,2.44v7.87h-5.5v-15.66h5.5v1.6c.92-1.22,2.44-1.83,4.51-1.83" vector-effect="none" fill="#673ab7"/>
</svg>